<?xml version="1.0" standalone="no"?>
<!DOCTYPE svg PUBLIC "-//W3C//DTD SVG 20010904//EN"
 "http://www.w3.org/TR/2001/REC-SVG-20010904/DTD/svg10.dtd">
<svg version="1.0" xmlns="http://www.w3.org/2000/svg"
 width="16.000000pt" height="16.000000pt" viewBox="0 0 16.000000 16.000000"
 preserveAspectRatio="xMidYMid meet">
<metadata>
Created by potrace 1.11, written by Peter Selinger 2001-2013
</metadata>
<g transform="translate(0.000000,16.000000) scale(0.002276,-0.002276)"
fill="#000000" stroke="none">
<path d="M3307 7004 c-2 -2 -37 -5 -79 -6 -42 -2 -75 -5 -73 -8 2 -3 -16 -5
-38 -6 -39 -1 -75 -5 -172 -20 -59 -8 -80 -12 -80 -14 0 -2 -64 -12 -92 -13
-13 -1 -23 -6 -23 -11 0 -4 -9 -6 -20 -3 -11 3 -20 1 -20 -4 0 -5 -3 -8 -7 -7
-6 1 -58 -9 -93 -17 -39 -10 -78 -22 -140 -42 -41 -14 -80 -26 -87 -27 -7 -1
-16 -5 -19 -9 -4 -4 -16 -7 -26 -7 -10 0 -18 -5 -18 -11 0 -5 -4 -8 -9 -5 -5
4 -22 1 -38 -6 -15 -6 -30 -12 -33 -13 -3 -1 -17 -7 -32 -13 -16 -7 -40 -17
-55 -24 -16 -6 -30 -12 -33 -13 -3 -1 -18 -7 -33 -13 -16 -7 -33 -12 -38 -12
-5 0 -9 -4 -9 -10 0 -5 -3 -9 -7 -8 -9 2 -179 -82 -253 -125 -25 -15 -53 -29
-62 -33 -10 -3 -18 -10 -18 -15 0 -5 -5 -9 -10 -9 -6 0 -38 -18 -71 -40 -33
-22 -64 -40 -69 -40 -5 0 -10 -3 -12 -7 -5 -13 -66 -53 -79 -53 -7 0 -10 -3
-6 -6 3 -4 -17 -22 -46 -42 -29 -19 -54 -38 -57 -41 -3 -3 -23 -19 -45 -36
-22 -16 -53 -42 -70 -57 -16 -15 -54 -48 -84 -75 -70 -63 -203 -197 -266 -269
-27 -31 -58 -65 -67 -75 -10 -11 -18 -23 -18 -29 0 -5 -4 -10 -8 -10 -5 0 -24
-21 -42 -47 -19 -27 -36 -50 -40 -53 -16 -15 -90 -121 -90 -130 0 -5 -4 -10
-10 -10 -5 0 -12 -11 -16 -25 -3 -14 -9 -23 -13 -21 -3 2 -15 -13 -25 -35 -11
-21 -23 -39 -28 -39 -4 0 -8 -7 -8 -15 0 -8 -9 -24 -20 -35 -11 -11 -20 -23
-20 -27 0 -18 -12 -43 -20 -43 -4 0 -10 -8 -14 -17 -3 -10 -10 -25 -15 -33 -5
-8 -17 -34 -27 -57 -10 -22 -22 -39 -26 -37 -4 3 -5 -5 -3 -16 2 -11 0 -20 -6
-20 -5 0 -9 -7 -9 -15 0 -8 -4 -15 -10 -15 -5 0 -10 -7 -10 -15 0 -8 -9 -31
-19 -52 -17 -33 -41 -87 -46 -103 -1 -3 -9 -23 -19 -45 -9 -22 -18 -48 -19
-57 -1 -10 -5 -18 -10 -18 -5 0 -7 -7 -3 -15 3 -8 1 -15 -4 -15 -5 0 -13 -18
-16 -40 -4 -22 -10 -37 -15 -34 -5 3 -6 -2 -3 -10 3 -9 1 -16 -5 -16 -6 0 -8
-6 -5 -14 3 -8 0 -17 -5 -21 -6 -3 -9 -10 -6 -15 3 -5 1 -12 -5 -15 -8 -5 -7
-12 2 -23 11 -13 11 -14 -1 -7 -11 6 -13 4 -8 -8 3 -10 3 -17 -2 -17 -5 0 -14
-24 -20 -52 -13 -60 -19 -83 -21 -83 -3 0 -11 -49 -13 -77 -1 -16 -6 -28 -10
-28 -5 0 -5 -4 -2 -10 3 -6 1 -10 -6 -10 -8 0 -8 -4 1 -15 9 -11 9 -15 1 -15
-7 0 -9 -4 -6 -10 3 -5 1 -10 -6 -10 -8 0 -8 -4 1 -15 8 -9 9 -15 2 -15 -6 0
-9 -9 -7 -20 2 -11 -1 -22 -6 -26 -6 -3 -5 -12 3 -22 11 -13 11 -14 -1 -7 -11
6 -13 4 -8 -8 3 -9 2 -19 -3 -22 -6 -4 -10 -13 -10 -21 0 -8 5 -12 10 -9 6 4
7 11 4 17 -5 7 -2 8 5 4 9 -6 8 -13 -5 -27 -9 -10 -14 -19 -9 -19 4 0 2 -7 -5
-15 -10 -12 -10 -15 1 -15 12 0 12 -2 0 -9 -8 -5 -11 -16 -8 -25 4 -9 1 -16
-6 -16 -8 0 -6 -4 3 -10 12 -8 12 -10 1 -10 -11 0 -10 -5 4 -20 18 -20 18 -21
0 -14 -14 6 -17 4 -12 -8 3 -9 3 -19 -1 -22 -9 -10 -11 -37 -2 -31 9 6 8 -14
-1 -30 -11 -19 -8 -405 3 -405 7 0 7 -4 -1 -13 -8 -10 -7 -17 2 -27 7 -8 8
-10 1 -7 -16 9 -13 -45 3 -64 7 -9 9 -20 3 -29 -6 -9 -5 -17 3 -22 9 -6 8 -8
-2 -8 -11 0 -9 -4 5 -15 19 -15 19 -15 -1 -8 -19 7 -19 6 -3 -18 10 -16 13
-31 8 -39 -5 -9 -4 -20 2 -27 6 -7 8 -13 5 -13 -4 0 0 -18 8 -40 10 -28 11
-41 3 -46 -7 -5 -5 -12 7 -21 11 -7 13 -13 7 -13 -7 0 -12 -5 -12 -11 0 -5 6
-7 13 -3 8 5 8 3 -2 -9 -11 -14 -11 -18 3 -23 9 -3 13 -10 10 -15 -3 -5 -10
-7 -15 -4 -5 3 -6 -1 -3 -9 3 -9 10 -16 15 -16 5 0 9 -5 9 -11 0 -5 -6 -7 -13
-3 -6 4 -3 -3 8 -16 13 -15 15 -21 5 -16 -8 4 -6 0 4 -8 11 -9 15 -16 10 -16
-6 0 -10 -10 -9 -22 2 -13 7 -22 13 -21 8 2 9 -5 2 -22 -7 -19 -6 -25 5 -25 7
0 17 -5 21 -12 4 -6 3 -8 -3 -5 -6 4 -13 0 -17 -8 -3 -8 0 -17 6 -21 7 -5 8
-2 3 6 -5 8 -4 11 2 7 6 -4 10 -20 9 -36 -1 -17 2 -27 8 -24 5 4 7 -1 3 -10
-3 -10 -2 -17 4 -17 6 0 7 -5 3 -11 -3 -6 0 -15 7 -20 12 -7 11 -9 -1 -9 -12
0 -12 -2 -2 -8 7 -5 14 -23 15 -40 1 -18 6 -32 11 -32 4 0 5 -7 2 -16 -5 -14
-4 -15 9 -4 14 11 14 10 5 -14 -6 -18 -6 -25 0 -21 6 3 10 -1 10 -9 0 -9 5
-16 12 -16 9 0 9 -3 0 -12 -15 -15 -16 -31 0 -22 7 5 9 2 5 -9 -4 -12 -2 -14
11 -10 15 6 15 5 3 -10 -11 -15 -11 -17 2 -17 10 0 13 -6 10 -20 -3 -13 0 -20
8 -20 11 0 11 -2 -1 -10 -13 -8 -12 -10 4 -10 14 0 17 -5 13 -21 -4 -16 -2
-19 10 -15 13 5 14 4 3 -9 -10 -12 -10 -15 0 -15 8 0 10 -8 7 -21 -4 -15 -2
-18 7 -10 9 7 11 1 11 -24 -1 -19 2 -32 7 -29 7 5 12 -10 9 -28 0 -5 4 -8 9
-8 6 0 10 -5 10 -11 0 -5 -4 -8 -10 -4 -11 7 8 -54 23 -72 5 -7 7 -13 3 -13
-3 0 4 -17 17 -38 13 -20 27 -47 31 -59 4 -13 11 -23 16 -23 4 0 11 -12 15
-27 3 -15 10 -30 13 -33 9 -6 29 -38 45 -70 6 -14 15 -29 19 -35 5 -5 39 -56
77 -113 37 -57 78 -114 90 -128 11 -13 21 -27 21 -30 0 -3 6 -11 13 -18 6 -7
21 -25 32 -40 11 -16 31 -41 45 -56 14 -15 41 -47 60 -71 45 -55 296 -306 339
-339 18 -14 48 -40 67 -58 19 -19 34 -31 34 -28 0 4 11 -3 24 -16 34 -33 66
-57 104 -80 17 -11 32 -24 32 -30 0 -5 5 -6 10 -3 5 3 10 2 10 -2 0 -5 16 -17
35 -27 19 -11 35 -23 35 -28 0 -4 7 -8 15 -8 8 0 15 -3 15 -7 0 -5 29 -24 65
-43 36 -19 65 -38 65 -41 0 -3 18 -14 40 -24 22 -10 40 -22 40 -27 0 -4 3 -7
8 -6 7 2 83 -33 92 -42 9 -9 85 -44 93 -42 4 1 7 -2 7 -8 0 -6 3 -9 8 -8 4 0
34 -11 67 -26 98 -44 112 -49 220 -91 39 -15 81 -29 95 -32 13 -2 29 -8 35
-13 6 -5 26 -12 45 -15 19 -3 39 -10 44 -15 5 -5 14 -6 21 -4 7 3 16 1 20 -5
3 -6 19 -11 34 -11 15 0 31 -3 35 -7 3 -4 17 -8 29 -10 18 -2 37 -7 77 -18 29
-8 72 -16 104 -20 21 -3 43 -8 48 -11 5 -3 31 -8 56 -9 26 -2 47 -4 47 -6 0
-3 83 -14 185 -25 177 -18 598 -19 617 -1 3 4 14 2 24 -4 11 -5 19 -6 19 -1 0
4 17 9 38 10 20 2 51 5 67 7 17 2 50 7 75 10 25 3 56 7 70 10 14 3 40 8 59 11
37 6 60 11 94 20 12 3 30 6 40 6 9 -1 17 4 17 9 0 6 4 7 10 4 5 -3 29 0 52 6
24 7 51 14 62 16 10 2 59 17 110 33 50 17 97 30 104 30 7 0 20 4 30 9 31 16
66 30 127 52 33 12 65 26 72 31 7 5 17 7 23 3 5 -3 10 -3 10 2 0 4 27 19 60
33 33 14 60 28 60 33 0 4 3 6 8 5 13 -4 52 13 52 23 0 5 3 8 8 7 9 -3 106 45
110 55 2 4 9 7 15 7 7 0 40 18 75 40 34 22 67 40 72 40 6 0 10 5 10 10 0 6 6
10 13 10 7 0 23 9 35 20 12 11 24 20 28 20 4 0 22 11 40 25 19 14 37 27 41 28
8 2 35 22 58 44 8 7 17 13 21 13 4 0 17 11 30 25 13 14 27 25 31 25 4 0 23 14
41 31 17 16 32 28 32 25 0 -3 23 16 52 42 28 26 62 57 76 70 14 12 29 22 34
22 5 0 7 4 3 9 -3 5 4 12 15 16 11 4 19 9 17 13 -2 4 10 19 25 34 15 15 28 25
28 23 0 -3 19 16 43 42 23 26 61 66 85 91 23 24 42 46 42 48 0 12 49 52 56 46
4 -4 4 -2 1 4 -6 10 1 22 43 71 5 7 10 16 10 22 0 5 7 12 16 15 9 4 14 13 10
22 -3 8 -2 13 3 10 5 -3 14 1 21 9 7 8 9 15 4 15 -5 1 0 9 11 18 19 17 27 34
28 59 0 6 6 9 14 6 7 -3 13 2 13 11 0 9 3 16 8 16 4 0 16 16 26 35 11 19 23
35 28 35 5 0 6 5 3 10 -3 6 -1 10 4 10 6 0 11 7 11 15 0 8 5 15 11 15 6 0 9 9
6 20 -3 11 -2 18 3 15 4 -2 19 13 34 35 14 22 24 40 20 40 -3 0 2 7 11 16 12
13 13 19 4 30 -9 12 -9 13 3 9 10 -4 26 17 53 72 22 43 40 81 40 85 0 4 7 15
15 25 9 10 16 20 16 23 4 23 17 50 25 50 6 0 8 4 5 9 -3 4 3 26 13 47 11 21
17 42 14 46 -2 5 1 8 8 8 6 0 9 8 6 20 -3 11 -2 18 3 15 10 -6 22 24 14 36 -3
5 -2 9 3 9 4 0 13 11 20 25 6 14 7 23 2 20 -5 -3 -2 7 6 22 13 25 24 55 30 76
2 4 4 9 5 12 1 3 4 10 5 15 1 6 3 11 5 13 1 1 3 9 5 17 1 8 13 49 25 90 13 41
25 84 26 95 5 29 12 60 14 60 1 0 4 16 7 35 2 19 8 37 11 40 4 3 8 16 9 30 1
14 3 42 5 62 2 21 5 38 8 38 3 0 7 17 9 38 5 55 9 87 11 87 3 0 8 45 13 111 2
28 6 55 9 60 7 12 2 567 -6 619 -3 22 -8 63 -11 90 -2 28 -9 77 -14 109 -6 32
-8 63 -5 67 3 5 1 9 -3 9 -5 0 -10 12 -11 28 -4 40 -7 56 -14 67 -3 6 -6 21
-7 35 -1 40 -5 65 -13 70 -3 3 -8 19 -12 35 -7 40 -34 140 -53 195 -17 50 -24
79 -25 98 -1 6 -5 12 -9 12 -4 0 -11 15 -14 33 -4 17 -11 37 -15 42 -5 6 -8
12 -8 15 -1 3 -5 18 -11 33 -6 16 -11 31 -11 33 0 3 -12 31 -26 62 -14 31 -31
68 -37 82 -6 14 -11 27 -13 30 -1 3 -5 15 -9 28 -4 12 -10 22 -14 22 -3 0 -17
27 -31 60 -14 33 -28 60 -32 60 -5 0 -8 7 -8 15 0 8 -5 15 -12 15 -6 0 -9 3
-5 6 3 4 -9 30 -28 59 -18 29 -31 56 -28 59 3 3 -2 8 -11 12 -9 3 -16 12 -16
19 0 8 -7 21 -16 29 -8 9 -12 16 -7 16 4 0 3 4 -2 8 -12 9 -115 158 -115 167
0 3 -10 16 -22 29 -35 36 -54 60 -61 79 -3 9 -11 17 -17 17 -5 0 -10 5 -10 10
0 6 -8 18 -17 28 -10 10 -43 47 -73 82 -57 66 -290 305 -290 297 0 -2 -26 20
-57 49 -32 30 -66 57 -75 60 -10 3 -18 9 -18 13 0 4 -21 23 -47 41 -27 19 -56
43 -65 54 -10 10 -18 16 -18 12 0 -6 -11 2 -45 32 -7 6 -18 12 -24 12 -6 0
-11 5 -11 10 0 6 -5 10 -10 10 -6 0 -20 9 -32 20 -12 11 -28 20 -35 20 -7 0
-13 5 -13 10 0 6 -7 10 -15 10 -9 0 -18 7 -22 16 -3 8 -12 13 -19 10 -8 -3
-14 -2 -14 2 0 9 -153 98 -159 93 -2 -1 -7 1 -10 6 -9 13 -170 93 -187 93 -8
0 -14 4 -14 8 0 4 -22 16 -50 26 -27 10 -50 22 -50 26 0 5 -7 7 -17 6 -9 -2
-35 6 -57 17 -23 11 -47 20 -53 20 -7 0 -13 3 -13 7 0 4 -6 7 -12 8 -7 0 -47
13 -88 27 -41 15 -79 28 -85 29 -5 1 -30 9 -55 16 -25 8 -52 14 -60 14 -8 0
-17 3 -20 6 -5 6 -176 46 -225 53 -11 1 -26 7 -34 11 -11 7 -12 6 -6 -5 7 -11
6 -12 -6 -3 -8 7 -36 14 -64 18 -65 8 -107 16 -117 22 -4 3 -8 0 -8 -6 0 -8
-6 -8 -20 0 -12 6 -34 9 -50 6 -17 -2 -30 -1 -30 3 0 4 -12 8 -27 9 -68 4
-492 9 -496 6z"/>
</g>
</svg>
